 http://www.shotpix.com/images/68309865872305421882.jpg


*******************************************************************************
Barbie:Princess Charm School-2011-DVDRip-H264-AC3-Esubs-[Eng-spa-French]-Multi Audio-SiNiSTER                
*******************************************************************************

-------------------------------------------------------------------------------
                              General Information
-------------------------------------------------------------------------------
General
Unique ID                        : 249391714092774223325782314108033182339 (0xBB9F18D5576E86CF9BFEA67E656C2A83)
Complete name                    : D:\Barbie  Princess Charm School-2011-DVDRip-H264-AC3-Esubs-[Eng-spa-French]-Multi Audio-SiNiSTER\Barbie  Princess Charm School-2011-DVDRip-H264-AC3-Esubs-[Eng-spa-French]-SiNiSTER.mkv
Format                           : Matroska
File size                        : 1.21 GiB
Duration                         : 1h 20mn
Overall bit rate                 : 2 158 Kbps
Movie name                       : Barbie : Princess Charm School-2011-DVDRip-H264-AC3-SiNiSTER
Encoded date                     : UTC 2011-10-21 08:10:31
Writing application              : mkvmerge v4.3.0 ('Escape from the Island') built on Sep  5 2010 10:30:51
Writing library                  : libebml v1.0.0 + libmatroska v1.0.0
Encoder                          : Wolfmaner

[img]http://www.pix2links.com/images/20349311072267311198.png[/img]

Video
ID                               : 1
Format                           : AVC
Format/Info                      : Advanced Video Codec
Format profile                   : Main@L3.0
Format settings, CABAC           : Yes
Format settings, ReFrames        : 4 frames
Muxing mode                      : Header stripping
Codec ID                         : V_MPEG4/ISO/AVC
Duration                         : 1h 20mn
Bit rate                         : 1 581 Kbps
Width                            : 720 pixels
Height                           : 400 pixels
Display aspect ratio             : 16:9
Frame rate mode                  : Variable
Frame rate                       : 29.970 fps
Color space                      : YUV
Chroma subsampling               : 4:2:0
Bit depth                        : 8 bits
Scan type                        : Progressive
Bits/(Pixel*Frame)               : 0.183
Stream size                      : 882 MiB (71%)
Title                            : SiNiSTER
Writing library                  : x264 core 112
Encoding settings                : cabac=1 / ref=2 / deblock=1:0:0 / analyse=0x1:0x111 / me=hex / subme=6 / psy=1 / psy_rd=1.00:0.00 / mixed_ref=0 / me_range=16 / chroma_me=1 / trellis=0 / 8x8dct=0 / cqm=0 / deadzone=21,11 / fast_pskip=1 / chroma_qp_offset=-2 / threads=1 / sliced_threads=0 / nr=0 / decimate=1 / interlaced=0 / constrained_intra=0 / bframes=2 / b_pyramid=2 / b_adapt=1 / b_bias=0 / direct=1 / weightb=0 / open_gop=0 / weightp=2 / keyint=300 / keyint_min=29 / scenecut=40 / intra_refresh=0 / rc_lookahead=40 / rc=2pass / mbtree=1 / bitrate=1581 / ratetol=1.0 / qcomp=0.60 / qpmin=3 / qpmax=51 / qpstep=4 / cplxblur=20.0 / qblur=0.5 / ip_ratio=1.40 / aq=1:1.00
Language                         : English
Color primaries                  : BT.601-6 525, BT.1358 525, BT.1700 NTSC, SMPTE 170M
Transfer characteristics         : BT.709-5, BT.1361
Matrix coefficients              : BT.601-6 525, BT.1358 525, BT.1700 NTSC, SMPTE 170M

[img]http://www.pix2links.com/images/97620169951974180344.png[/img]

Audio #1
ID                               : 2
Format                           : AC-3
Format/Info                      : Audio Coding 3
Format profile                   : Dolby Digital
Mode extension                   : CM (complete main)
Muxing mode                      : Header stripping
Codec ID                         : A_AC3
Duration                         : 1h 20mn
Bit rate mode                    : Constant
Bit rate                         : 192 Kbps
Channel(s)                       : 2 channels
Channel positions                : Front: L R
Sampling rate                    : 48.0 KHz
Bit depth                        : 16 bits
Compression mode                 : Lossy
Stream size                      : 110 MiB (9%)
Title                            : SiNiSTER
Language                         : English

Audio #2
ID                               : 3
Format                           : AC-3
Format/Info                      : Audio Coding 3
Format profile                   : Dolby Digital
Mode extension                   : CM (complete main)
Muxing mode                      : Header stripping
Codec ID                         : A_AC3
Duration                         : 1h 20mn
Bit rate mode                    : Constant
Bit rate                         : 192 Kbps
Channel(s)                       : 2 channels
Channel positions                : Front: L R
Sampling rate                    : 48.0 KHz
Bit depth                        : 16 bits
Compression mode                 : Lossy
Stream size                      : 110 MiB (9%)
Title                            : SiNiSTER
Language                         : French

Audio #3
ID                               : 4
Format                           : AC-3
Format/Info                      : Audio Coding 3
Format profile                   : Dolby Digital
Mode extension                   : CM (complete main)
Muxing mode                      : Header stripping
Codec ID                         : A_AC3
Duration                         : 1h 20mn
Bit rate mode                    : Constant
Bit rate                         : 192 Kbps
Channel(s)                       : 2 channels
Channel positions                : Front: L R
Sampling rate                    : 48.0 KHz
Bit depth                        : 16 bits
Compression mode                 : Lossy
Stream size                      : 110 MiB (9%)
Title                            : SiNiSTER
Language                         : Spanish

Text
ID                               : 5
Format                           : UTF-8
Codec ID                         : S_TEXT/UTF8
Codec ID/Info                    : UTF-8 Plain Text
Title                            : SiNiSTER








Greets:
DarkScene,HDScene,Noir,Chaos,CrEwSaDe,blackjesus,ViSiON,HDLiTE,UnKnOwN,EP1C,IMAGiNE,
FLAWL3SS,Rx,ELEKTRI4KA,CiNEDUB,BDK,SAFCuk009,HiVE-CM8..... and everybody else we 
respect.. u know who u are

-------------------------------------------------------------------------------
                               Post Information
-------------------------------------------------------------------------------
Encoded by...........: SiNiSTER & TDT its a combined release of Both the groups.
 
Have sumthing to offer..looking for suppliers... cammers,cams,screeners, audio
supplier.. and any pre retail DVD/BR any RC...if u can provide any email us at
sinister@hushmail.me


-------------------------------------------------------------------------------
                                 ScreenShots
------------------------------------------------------------------------------- 
http://www.shotpix.com/images/64790907757530931341.png
 
http://www.shotpix.com/images/68726392170941013803.png
 
http://www.shotpix.com/images/37180413581396476869.png
 
http://www.shotpix.com/images/45599795202126634092.png
 
http://www.shotpix.com/images/75632079730381958305.png
 
http://www.shotpix.com/images/53102462313727926453.png
 
http://www.shotpix.com/images/69605466943282452789.png

 
http://www.shotpix.com/images/11619412240097098254.jpg


Enjoy guysss :P

-------------------------------------------------------------------------------
Generated with Cool NFO Creator - http://fly.to/coolbeans
-------------------------------------------------------------------------------
 
http://www.pix2links.com/images/33502453931372952618.gif

[color=red][size=5]Guys Sample is Included in the torrent so plz download it first to check the quality[/size][/color]